<mxfile host="65bd71144e" modified="2021-02-15T04:06:26.292Z" agent="5.0 (Macintosh; Intel Mac OS X 10_14_6) AppleWebKit/537.36 (KHTML, like Gecko) Code/1.53.1 Chrome/87.0.4280.141 Electron/11.2.1 Safari/537.36" etag="HIlRCN5H3EkAZzuD5MJk" version="14.2.4" type="embed">
    <diagram id="UGyoffJLYDz44e76maz6" name="第 1 页">
        <mxGraphModel dx="164" dy="373" grid="1" gridSize="10" guides="1" tooltips="1" connect="1" arrows="1" fold="1" page="1" pageScale="1" pageWidth="827" pageHeight="1169" math="0" shadow="0">
            <root>
                <mxCell id="0"/>
                <mxCell id="1" parent="0"/>
                <mxCell id="D8hOmeCMNjnSMBlBtHZv-15" style="edgeStyle=orthogonalEdgeStyle;orthogonalLoop=1;jettySize=auto;html=1;exitX=0.25;exitY=1;exitDx=0;exitDy=0;entryX=0.25;entryY=0;entryDx=0;entryDy=0;rounded=0;fontFamily=Comic Sans MS;" parent="1" source="D8hOmeCMNjnSMBlBtHZv-1" target="D8hOmeCMNjnSMBlBtHZv-2" edge="1">
                    <mxGeometry relative="1" as="geometry"/>
                </mxCell>
                <mxCell id="D8hOmeCMNjnSMBlBtHZv-1" value="App" style="rounded=0;whiteSpace=wrap;html=1;fillColor=#dae8fc;strokeColor=#6c8ebf;fontFamily=Comic Sans MS;" parent="1" vertex="1">
                    <mxGeometry x="240" y="200" width="90" height="40" as="geometry"/>
                </mxCell>
                <mxCell id="D8hOmeCMNjnSMBlBtHZv-16" style="edgeStyle=orthogonalEdgeStyle;rounded=0;orthogonalLoop=1;jettySize=auto;html=1;exitX=0.75;exitY=0;exitDx=0;exitDy=0;entryX=0.75;entryY=1;entryDx=0;entryDy=0;fontFamily=Comic Sans MS;" parent="1" source="D8hOmeCMNjnSMBlBtHZv-2" target="D8hOmeCMNjnSMBlBtHZv-1" edge="1">
                    <mxGeometry relative="1" as="geometry"/>
                </mxCell>
                <mxCell id="D8hOmeCMNjnSMBlBtHZv-2" value="Parent" style="rounded=0;whiteSpace=wrap;html=1;fillColor=#dae8fc;strokeColor=#6c8ebf;fontFamily=Comic Sans MS;" parent="1" vertex="1">
                    <mxGeometry x="240" y="280" width="90" height="40" as="geometry"/>
                </mxCell>
                <mxCell id="D8hOmeCMNjnSMBlBtHZv-28" style="edgeStyle=orthogonalEdgeStyle;rounded=0;orthogonalLoop=1;jettySize=auto;html=1;exitX=1;exitY=0.5;exitDx=0;exitDy=0;entryX=0;entryY=0.5;entryDx=0;entryDy=0;fontFamily=Comic Sans MS;" parent="1" source="D8hOmeCMNjnSMBlBtHZv-3" target="D8hOmeCMNjnSMBlBtHZv-27" edge="1">
                    <mxGeometry relative="1" as="geometry"/>
                </mxCell>
                <mxCell id="D8hOmeCMNjnSMBlBtHZv-3" value="pendingProps" style="rounded=0;whiteSpace=wrap;html=1;fontFamily=Comic Sans MS;" parent="1" vertex="1">
                    <mxGeometry x="240" y="320" width="90" height="20" as="geometry"/>
                </mxCell>
                <mxCell id="D8hOmeCMNjnSMBlBtHZv-17" style="edgeStyle=orthogonalEdgeStyle;rounded=0;orthogonalLoop=1;jettySize=auto;html=1;exitX=0.25;exitY=1;exitDx=0;exitDy=0;entryX=0.25;entryY=0;entryDx=0;entryDy=0;fontFamily=Comic Sans MS;" parent="1" source="D8hOmeCMNjnSMBlBtHZv-6" target="D8hOmeCMNjnSMBlBtHZv-10" edge="1">
                    <mxGeometry relative="1" as="geometry"/>
                </mxCell>
                <mxCell id="D8hOmeCMNjnSMBlBtHZv-29" style="edgeStyle=orthogonalEdgeStyle;rounded=0;orthogonalLoop=1;jettySize=auto;html=1;exitX=1;exitY=0.5;exitDx=0;exitDy=0;entryX=0;entryY=0.5;entryDx=0;entryDy=0;fontFamily=Comic Sans MS;" parent="1" source="D8hOmeCMNjnSMBlBtHZv-6" target="D8hOmeCMNjnSMBlBtHZv-27" edge="1">
                    <mxGeometry relative="1" as="geometry"/>
                </mxCell>
                <mxCell id="D8hOmeCMNjnSMBlBtHZv-6" value="memoizedProps" style="rounded=0;whiteSpace=wrap;html=1;fontFamily=Comic Sans MS;" parent="1" vertex="1">
                    <mxGeometry x="240" y="340" width="90" height="20" as="geometry"/>
                </mxCell>
                <mxCell id="D8hOmeCMNjnSMBlBtHZv-18" style="edgeStyle=orthogonalEdgeStyle;rounded=0;orthogonalLoop=1;jettySize=auto;html=1;exitX=0.75;exitY=0;exitDx=0;exitDy=0;entryX=0.75;entryY=1;entryDx=0;entryDy=0;fontFamily=Comic Sans MS;" parent="1" source="D8hOmeCMNjnSMBlBtHZv-10" target="D8hOmeCMNjnSMBlBtHZv-6" edge="1">
                    <mxGeometry relative="1" as="geometry"/>
                </mxCell>
                <mxCell id="D8hOmeCMNjnSMBlBtHZv-19" style="edgeStyle=orthogonalEdgeStyle;rounded=0;orthogonalLoop=1;jettySize=auto;html=1;exitX=0.25;exitY=1;exitDx=0;exitDy=0;entryX=0.25;entryY=0;entryDx=0;entryDy=0;fontFamily=Comic Sans MS;" parent="1" source="D8hOmeCMNjnSMBlBtHZv-10" target="D8hOmeCMNjnSMBlBtHZv-11" edge="1">
                    <mxGeometry relative="1" as="geometry"/>
                </mxCell>
                <mxCell id="D8hOmeCMNjnSMBlBtHZv-10" value="div" style="rounded=0;whiteSpace=wrap;html=1;fillColor=#dae8fc;strokeColor=#6c8ebf;fontFamily=Comic Sans MS;" parent="1" vertex="1">
                    <mxGeometry x="240" y="400" width="90" height="40" as="geometry"/>
                </mxCell>
                <mxCell id="D8hOmeCMNjnSMBlBtHZv-21" style="edgeStyle=orthogonalEdgeStyle;rounded=0;orthogonalLoop=1;jettySize=auto;html=1;exitX=0.75;exitY=0;exitDx=0;exitDy=0;entryX=0.75;entryY=1;entryDx=0;entryDy=0;fontFamily=Comic Sans MS;" parent="1" source="D8hOmeCMNjnSMBlBtHZv-11" target="D8hOmeCMNjnSMBlBtHZv-10" edge="1">
                    <mxGeometry relative="1" as="geometry"/>
                </mxCell>
                <mxCell id="D8hOmeCMNjnSMBlBtHZv-22" style="edgeStyle=orthogonalEdgeStyle;rounded=0;orthogonalLoop=1;jettySize=auto;html=1;exitX=1;exitY=0.5;exitDx=0;exitDy=0;entryX=0;entryY=0.5;entryDx=0;entryDy=0;fontFamily=Comic Sans MS;" parent="1" source="D8hOmeCMNjnSMBlBtHZv-11" target="D8hOmeCMNjnSMBlBtHZv-12" edge="1">
                    <mxGeometry relative="1" as="geometry"/>
                </mxCell>
                <mxCell id="D8hOmeCMNjnSMBlBtHZv-11" value="span" style="rounded=0;whiteSpace=wrap;html=1;fillColor=#dae8fc;strokeColor=#6c8ebf;fontFamily=Comic Sans MS;" parent="1" vertex="1">
                    <mxGeometry x="240" y="480" width="90" height="40" as="geometry"/>
                </mxCell>
                <mxCell id="D8hOmeCMNjnSMBlBtHZv-23" style="edgeStyle=orthogonalEdgeStyle;rounded=0;orthogonalLoop=1;jettySize=auto;html=1;exitX=0.25;exitY=1;exitDx=0;exitDy=0;entryX=0.25;entryY=0;entryDx=0;entryDy=0;fontFamily=Comic Sans MS;" parent="1" source="D8hOmeCMNjnSMBlBtHZv-12" target="D8hOmeCMNjnSMBlBtHZv-13" edge="1">
                    <mxGeometry relative="1" as="geometry"/>
                </mxCell>
                <mxCell id="D8hOmeCMNjnSMBlBtHZv-12" value="Son" style="rounded=0;whiteSpace=wrap;html=1;fillColor=#dae8fc;strokeColor=#6c8ebf;fontFamily=Comic Sans MS;" parent="1" vertex="1">
                    <mxGeometry x="370" y="480" width="90" height="40" as="geometry"/>
                </mxCell>
                <mxCell id="D8hOmeCMNjnSMBlBtHZv-24" style="edgeStyle=orthogonalEdgeStyle;rounded=0;orthogonalLoop=1;jettySize=auto;html=1;exitX=0.75;exitY=0;exitDx=0;exitDy=0;entryX=0.75;entryY=1;entryDx=0;entryDy=0;fontFamily=Comic Sans MS;" parent="1" source="D8hOmeCMNjnSMBlBtHZv-13" target="D8hOmeCMNjnSMBlBtHZv-12" edge="1">
                    <mxGeometry relative="1" as="geometry"/>
                </mxCell>
                <mxCell id="D8hOmeCMNjnSMBlBtHZv-13" value="p" style="rounded=0;whiteSpace=wrap;html=1;fillColor=#dae8fc;strokeColor=#6c8ebf;fontFamily=Comic Sans MS;" parent="1" vertex="1">
                    <mxGeometry x="370" y="560" width="90" height="40" as="geometry"/>
                </mxCell>
                <mxCell id="D8hOmeCMNjnSMBlBtHZv-27" value="&amp;nbsp; &amp;nbsp; &amp;nbsp;children：&amp;nbsp;" style="rounded=0;whiteSpace=wrap;html=1;fontFamily=Comic Sans MS;align=left;" parent="1" vertex="1">
                    <mxGeometry x="380" y="325" width="120" height="30" as="geometry"/>
                </mxCell>
                <mxCell id="D8hOmeCMNjnSMBlBtHZv-42" style="edgeStyle=orthogonalEdgeStyle;rounded=0;orthogonalLoop=1;jettySize=auto;html=1;exitX=0.25;exitY=1;exitDx=0;exitDy=0;fontFamily=Comic Sans MS;entryX=0.25;entryY=0;entryDx=0;entryDy=0;" parent="1" source="D8hOmeCMNjnSMBlBtHZv-31" target="D8hOmeCMNjnSMBlBtHZv-36" edge="1">
                    <mxGeometry relative="1" as="geometry"/>
                </mxCell>
                <mxCell id="D8hOmeCMNjnSMBlBtHZv-31" value="App" style="rounded=0;whiteSpace=wrap;html=1;fillColor=#dae8fc;strokeColor=#6c8ebf;fontFamily=Comic Sans MS;" parent="1" vertex="1">
                    <mxGeometry x="560" y="200" width="90" height="40" as="geometry"/>
                </mxCell>
                <mxCell id="D8hOmeCMNjnSMBlBtHZv-43" style="edgeStyle=orthogonalEdgeStyle;rounded=0;orthogonalLoop=1;jettySize=auto;html=1;exitX=0.75;exitY=0;exitDx=0;exitDy=0;entryX=0.75;entryY=1;entryDx=0;entryDy=0;fontFamily=Comic Sans MS;" parent="1" source="D8hOmeCMNjnSMBlBtHZv-36" target="D8hOmeCMNjnSMBlBtHZv-31" edge="1">
                    <mxGeometry relative="1" as="geometry"/>
                </mxCell>
                <mxCell id="D8hOmeCMNjnSMBlBtHZv-36" value="Parent" style="rounded=0;whiteSpace=wrap;html=1;fillColor=#dae8fc;strokeColor=#6c8ebf;fontFamily=Comic Sans MS;" parent="1" vertex="1">
                    <mxGeometry x="560" y="280" width="90" height="40" as="geometry"/>
                </mxCell>
                <mxCell id="3Atqfvq7B1O8BmZVOndW-1" style="edgeStyle=orthogonalEdgeStyle;curved=1;orthogonalLoop=1;jettySize=auto;html=1;exitX=0.5;exitY=1;exitDx=0;exitDy=0;fontFamily=Comic Sans MS;" parent="1" source="D8hOmeCMNjnSMBlBtHZv-37" target="D8hOmeCMNjnSMBlBtHZv-12" edge="1">
                    <mxGeometry relative="1" as="geometry"/>
                </mxCell>
                <mxCell id="3Atqfvq7B1O8BmZVOndW-2" value="create" style="edgeLabel;html=1;align=center;verticalAlign=middle;resizable=0;points=[];fontFamily=Comic Sans MS;" parent="3Atqfvq7B1O8BmZVOndW-1" vertex="1" connectable="0">
                    <mxGeometry x="-0.1158" y="1" relative="1" as="geometry">
                        <mxPoint as="offset"/>
                    </mxGeometry>
                </mxCell>
                <mxCell id="D8hOmeCMNjnSMBlBtHZv-37" value="Son" style="rounded=0;whiteSpace=wrap;html=1;fillColor=#f8cecc;strokeColor=#b85450;fontFamily=Comic Sans MS;" parent="1" vertex="1">
                    <mxGeometry x="460" y="330" width="30" height="20" as="geometry"/>
                </mxCell>
                <mxCell id="D8hOmeCMNjnSMBlBtHZv-40" style="edgeStyle=orthogonalEdgeStyle;rounded=0;orthogonalLoop=1;jettySize=auto;html=1;exitX=0;exitY=0.5;exitDx=0;exitDy=0;entryX=1;entryY=0.5;entryDx=0;entryDy=0;fontFamily=Comic Sans MS;" parent="1" source="D8hOmeCMNjnSMBlBtHZv-38" target="D8hOmeCMNjnSMBlBtHZv-27" edge="1">
                    <mxGeometry relative="1" as="geometry"/>
                </mxCell>
                <mxCell id="D8hOmeCMNjnSMBlBtHZv-38" value="pendingProps" style="rounded=0;whiteSpace=wrap;html=1;fontFamily=Comic Sans MS;" parent="1" vertex="1">
                    <mxGeometry x="560" y="320" width="90" height="20" as="geometry"/>
                </mxCell>
                <mxCell id="D8hOmeCMNjnSMBlBtHZv-41" style="edgeStyle=orthogonalEdgeStyle;rounded=0;orthogonalLoop=1;jettySize=auto;html=1;exitX=0;exitY=0.25;exitDx=0;exitDy=0;fontFamily=Comic Sans MS;" parent="1" source="D8hOmeCMNjnSMBlBtHZv-39" edge="1">
                    <mxGeometry relative="1" as="geometry">
                        <mxPoint x="500" y="340" as="targetPoint"/>
                        <Array as="points">
                            <mxPoint x="560" y="350"/>
                            <mxPoint x="530" y="350"/>
                            <mxPoint x="530" y="340"/>
                        </Array>
                    </mxGeometry>
                </mxCell>
                <mxCell id="D8hOmeCMNjnSMBlBtHZv-39" value="memoizedProps" style="rounded=0;whiteSpace=wrap;html=1;fontFamily=Comic Sans MS;" parent="1" vertex="1">
                    <mxGeometry x="560" y="340" width="90" height="20" as="geometry"/>
                </mxCell>
            </root>
        </mxGraphModel>
    </diagram>
</mxfile>